<?xml version="1.0" encoding="utf-8"?><!-- Generator: Adobe Illustrator 28.0.0, SVG Export Plug-In . SVG Version: 6.00 Build 0)  --><svg version="1.1" id="图层_1" xmlns="http://www.w3.org/2000/svg" xmlns:xlink="http://www.w3.org/1999/xlink" x="0px" y="0px" viewBox="0 0 500 500" style="enable-background:new 0 0 500 500;" xml:space="preserve"><g><g id="LWPOLYLINE"><path style="fill:#E4E536;" d="M367.89,306.26c0,7.29-3.89,14.03-10.21,17.68l-97.44,56.26c-6.32,3.65-14.1,3.65-20.41,0l-97.45-56.26c-6.32-3.65-10.21-10.39-10.21-17.68V193.77c0-7.29,3.89-14.03,10.2-17.68l97.45-56.28c6.32-3.65,14.1-3.65,20.42,0l36.92,21.32l-111.05,64.14c-4.21,2.43-6.8,6.92-6.8,11.78v65.92c0,4.86,2.59,9.35,6.8,11.79l57.11,32.97c4.21,2.43,9.4,2.43,13.61,0l63.91-36.9l47.14-27.22V306.26z"/></g><g id="LWPOLYLINE_00000023253605931032276710000016448364944976667833_"><path style="fill:#0E2AFF;" d="M462.16,143.28l-0.27,213.44c-0.01,9.7-5.19,18.66-13.59,23.52L263.65,487.09c-8.42,4.87-18.81,4.88-27.24,0.01L51.46,380.35c-8.42-4.86-13.61-13.85-13.61-23.57V143.31c0-9.72,5.19-18.71,13.6-23.57L236.42,12.9c8.42-4.86,18.8-4.87,27.22,0l127.79,73.78L344.3,113.9l-84.74-48.92c-5.9-3.4-13.16-3.4-19.06,0l-145.95,84.3c-5.89,3.4-9.52,9.69-9.52,16.5v168.48c0,6.81,3.63,13.1,9.53,16.5l145.95,84.27c5.89,3.4,13.15,3.4,19.05,0l145.94-84.21c5.9-3.4,9.53-9.69,9.53-16.5V186.17l-151.39,87.41c-13.02,7.52-29.66,3.06-37.18-9.96s-3.06-29.66,9.96-37.18l184.9-106.75c4.15-2.39,8.85-3.65,13.64-3.65C450,116.05,462.17,128.25,462.16,143.28z"/></g></g></svg>